Coordinates
version=1
nRows=7
nColumns=40
inDegrees=yes

Units are S.I. units (second, meters, Newtons, ...)
If the header above contains a line with 'inDegrees', this indicates whether rotational values are in degrees (yes) or radians (no).

endheader
time	pelvis_tilt	pelvis_list	pelvis_rotation	pelvis_tx	pelvis_ty	pelvis_tz	hip_flexion_r	hip_adduction_r	hip_rotation_r	knee_angle_r	knee_angle_r_beta	ankle_angle_r	subtalar_angle_r	mtp_angle_r	hip_flexion_l	hip_adduction_l	hip_rotation_l	knee_angle_l	knee_angle_l_beta	ankle_angle_l	subtalar_angle_l	mtp_angle_l	lumbar_extension	lumbar_bending	lumbar_rotation	arm_flex_r	arm_add_r	arm_rot_r	elbow_flex_r	pro_sup_r	wrist_flex_r	wrist_dev_r	arm_flex_l	arm_add_l	arm_rot_l	elbow_flex_l	pro_sup_l	wrist_flex_l	wrist_dev_l
      3.75000000	     -5.45727204	     -2.73087271	     -5.19672951	     -0.41638240	      0.89129998	     -1.05827510	     56.63244113	      1.45657855	     -7.55911817	      7.36282621	      0.12850556	      2.59395142	      0.00000000	      0.00000000	     46.30799817	      0.36740840	      0.23676724	     69.69844971	      1.21646743	     18.11965523	      0.00000000	      0.00000000	    -14.52397787	      1.86168871	      6.84492780	     89.96180708	    -22.16794636	      8.44771315	     50.29333645	     69.92985690	      0.00000000	      0.00000000	     89.91669772	    -54.89849306	      5.70085981	     41.39089359	     75.49147675	      0.00000000	      0.00000000
      3.75500000	     -5.42531311	     -2.72286412	     -5.21284726	     -0.41661511	      0.89082614	     -1.05837437	     56.63523090	      1.43842314	     -7.51259699	      7.42942153	      0.12966787	      2.60556329	      0.00000000	      0.00000000	     46.34194620	      0.34509277	      0.18254810	     69.79746413	      1.21819556	     18.13827620	      0.00000000	      0.00000000	    -14.63887839	      1.81998755	      6.95289572	     89.96170647	    -22.37112618	      8.62496997	     50.20405246	     70.05722276	      0.00000000	      0.00000000	     89.91694035	    -54.75374888	      5.59649884	     41.36986976	     75.93593297	      0.00000000	      0.00000000
      3.76000000	     -5.43955605	     -2.72297797	     -5.21459415	     -0.41684648	      0.89015700	     -1.05840314	     56.68913688	      1.42258829	     -7.53213502	      7.47729797	      0.13050347	      2.60227965	      0.00000000	      0.00000000	     46.44528806	      0.30000725	      0.11426952	     69.93736994	      1.22063738	     18.17199506	      0.00000000	      0.00000000	    -14.67746452	      1.80453227	      7.04877237	     89.96146659	    -22.46183137	      9.37475870	     50.38746578	     61.55972009	      0.00000000	      0.00000000	     89.91739996	    -54.53787968	      6.36422963	     41.62907508	     66.08624257	      0.00000000	      0.00000000
      3.76500000	     -5.50325649	     -2.68199422	     -5.17087555	     -0.41706832	      0.88956325	     -1.05848916	     56.80881222	      1.33922353	     -7.54475357	      7.56896694	      0.13210339	      2.66349078	      0.00000000	      0.00000000	     46.58864453	      0.33371646	      0.07866418	     70.02514609	      1.22216936	     18.18877207	      0.00000000	      0.00000000	    -14.71595245	      1.75987162	      6.92848048	     89.96151921	    -22.40276950	      8.70704598	     50.02221298	     69.38937685	      0.00000000	      0.00000000	     89.91695280	    -54.77657479	      5.62280697	     41.40757196	     76.10230477	      0.00000000	      0.00000000
      3.77000000	     -5.51775408	     -2.74075783	     -5.12971338	     -0.41730593	      0.88893727	     -1.05855099	     56.87702267	      1.31474513	     -7.77743288	      7.64848427	      0.13349123	      2.55033952	      0.00000000	      0.00000000	     46.69992231	      0.27570546	      0.10891328	     70.18117212	      1.22489253	     18.20685949	      0.00000000	      0.00000000	    -14.75593728	      1.80157481	      7.04025304	     89.96131206	    -22.52322689	      9.26129574	     50.17687408	     62.39448921	      0.00000000	      0.00000000	     89.91794064	    -54.46467499	      6.27033656	     41.59600383	     67.35872244	      0.00000000	      0.00000000
      3.77500000	     -5.52911182	     -2.76492306	     -5.15346883	     -0.41759470	      0.88832081	     -1.05852778	     56.91148135	      1.33484522	     -7.73454149	      7.66609946	      0.13379868	      2.59374264	      0.00000000	      0.00000000	     46.79244105	      0.19840335	      0.07006680	     70.31030226	      1.22714627	     18.22701043	      0.00000000	      0.00000000	    -14.81184239	      1.79438584	      7.12086317	     89.96121266	    -22.56624413	      9.72316628	     50.34283681	     56.92251477	      0.00000000	      0.00000000	     89.91823156	    -54.32565267	      6.80768646	     41.89340237	     60.35031663	      0.00000000	      0.00000000
      3.78000000	     -5.56212672	     -2.78309594	     -5.09380198	     -0.41782708	      0.88774615	     -1.05863401	     56.97291840	      1.28397672	     -7.81742017	      7.69545474	      0.13431102	      2.76137386	      0.00000000	      0.00000000	     46.90694349	      0.19548578	      0.09183902	     70.42282173	      1.22911011	     18.19454605	      0.00000000	      0.00000000	    -14.84723273	      1.80824014	      7.12959010	     89.96100070	    -22.59882527	      9.86358811	     50.41841645	     54.28321063	      0.00000000	      0.00000000	     89.91858565	    -54.23091050	      7.05877032	     42.03769604	     57.03179506	      0.00000000	      0.00000000
